<?xml version="1.0" encoding="utf-8"?>
<!-- Generator: Adobe Illustrator 27.9.1, SVG Export Plug-In . SVG Version: 6.00 Build 0)  -->
<svg version="1.1" id="Layer_1" xmlns="http://www.w3.org/2000/svg" xmlns:xlink="http://www.w3.org/1999/xlink" x="0px" y="0px"
	 viewBox="0 0 135 25" style="enable-background:new 0 0 135 25;" xml:space="preserve">
<style type="text/css">
	.st0{fill:#312A4E;}
</style>
<path class="st0" d="M6.1,5.7l4.1,12.9h0.2l4.1-12.9h6.1L14,24H6.6L0,5.7H6.1z"/>
<path class="st0" d="M22.6,24V5.7H37v4h-9v3.1h8.3v4H28V20h9v4H22.6z M26.8,4.1c-0.7,0-1.2-0.2-1.7-0.6c-0.5-0.4-0.7-0.9-0.7-1.5
	c0-0.6,0.2-1.1,0.7-1.5c0.5-0.4,1-0.6,1.7-0.6c0.6,0,1.2,0.2,1.7,0.6c0.5,0.4,0.7,0.9,0.7,1.5c0,0.6-0.2,1.1-0.7,1.5
	C28,3.9,27.4,4.1,26.8,4.1z M33,4.1c-0.7,0-1.2-0.2-1.7-0.6c-0.5-0.4-0.7-0.9-0.7-1.5c0-0.6,0.2-1.1,0.7-1.5C31.8,0.2,32.3,0,33,0
	c0.6,0,1.2,0.2,1.7,0.6c0.5,0.4,0.7,0.9,0.7,1.5c0,0.6-0.2,1.1-0.7,1.5C34.2,3.9,33.6,4.1,33,4.1z"/>
<path class="st0" d="M39.7,24V5.7h8.6c1.5,0,2.8,0.2,3.9,0.7c1.1,0.5,2,1.2,2.6,2.1c0.6,0.9,0.9,2,0.9,3.3c0,1.3-0.3,2.4-1,3.3
	c-0.6,0.9-1.5,1.6-2.7,2c-1.1,0.5-2.5,0.7-4,0.7H43v-3.9h4.1c0.6,0,1.2-0.1,1.6-0.2c0.5-0.1,0.8-0.4,1-0.7c0.2-0.3,0.4-0.7,0.4-1.3
	c0-0.5-0.1-0.9-0.4-1.3c-0.2-0.3-0.6-0.6-1-0.7c-0.4-0.2-1-0.2-1.6-0.2h-1.9V24H39.7z M51.4,15.6l5,8.4h-5.9l-4.9-8.4H51.4z"/>
<path class="st0" d="M68.9,11.4c-0.1-0.6-0.3-1.1-0.7-1.4c-0.4-0.3-1.1-0.5-2-0.5c-0.6,0-1,0.1-1.4,0.2c-0.4,0.1-0.6,0.3-0.8,0.5
	c-0.2,0.2-0.3,0.4-0.3,0.7c0,0.2,0,0.4,0.1,0.6c0.1,0.2,0.3,0.3,0.5,0.5c0.2,0.1,0.5,0.3,0.9,0.4c0.3,0.1,0.8,0.2,1.2,0.3l1.6,0.3
	c1.1,0.2,2.1,0.5,2.8,0.8c0.8,0.4,1.4,0.8,1.9,1.2c0.5,0.5,0.9,1,1.1,1.6c0.2,0.6,0.4,1.2,0.4,1.9c0,1.2-0.3,2.2-1,3
	c-0.7,0.8-1.6,1.5-2.8,1.9c-1.2,0.4-2.7,0.7-4.4,0.7c-1.7,0-3.3-0.2-4.6-0.7c-1.3-0.5-2.3-1.2-3-2.2c-0.7-1-1.1-2.2-1.1-3.8h5.2
	c0,0.6,0.2,1,0.5,1.4c0.3,0.4,0.7,0.7,1.2,0.9c0.5,0.2,1.1,0.3,1.8,0.3c0.6,0,1.1-0.1,1.5-0.2c0.4-0.1,0.7-0.3,0.9-0.5
	c0.2-0.2,0.3-0.5,0.3-0.8c0-0.3-0.1-0.5-0.3-0.7c-0.2-0.2-0.5-0.4-0.9-0.6c-0.4-0.2-1-0.3-1.8-0.5l-2-0.4c-1.8-0.4-3.2-0.9-4.2-1.8
	c-1-0.8-1.5-2-1.5-3.4c0-1.2,0.3-2.2,1-3c0.7-0.9,1.6-1.6,2.9-2c1.2-0.5,2.6-0.7,4.2-0.7c1.6,0,3,0.2,4.2,0.7
	c1.2,0.5,2.1,1.2,2.7,2.1c0.6,0.9,1,1.9,1,3.1H68.9z"/>
<path class="st0" d="M75.9,9.7v-4h17.4v4h-6V24h-5.4V9.7H75.9z"/>
<path class="st0" d="M95.3,24V5.7h5.4v7.4h0.3l6-7.4h6.3l-6.8,8.1l6.9,10.1h-6.5l-4.5-6.8l-1.8,2.1V24H95.3z"/>
<path class="st0" d="M120.2,24h-5.9L121,5.7h7.4L135,24h-5.9l-4.4-13.2h-0.2L120.2,24z M119.1,16.8h11v3.7h-11V16.8z"/>
</svg>
